<?xml version="1.0" encoding="UTF-8" standalone="no"?>
<!-- Created with Inkscape (http://www.inkscape.org/) -->

<svg
   width="400mm"
   height="400mm"
   viewBox="0 0 400 400"
   version="1.1"
   id="svg1"
   xml:space="preserve"
   xmlns="http://www.w3.org/2000/svg"
   xmlns:svg="http://www.w3.org/2000/svg"><defs
     id="defs1"><rect
       x="1090.5722"
       y="344.16192"
       width="284.62336"
       height="175.71136"
       id="rect2" /></defs><g
     id="layer1"><circle
       style="opacity:1;fill:#0f172a;fill-opacity:1;stroke:none;stroke-width:1;stroke-linecap:round;stroke-dasharray:none;stroke-opacity:1;paint-order:normal"
       id="path15"
       cx="200"
       cy="200"
       r="102.96307" /><circle
       style="opacity:1;fill:#ffffff;fill-opacity:1;stroke:none;stroke-width:1;stroke-linecap:round;stroke-dasharray:none;stroke-opacity:1;paint-order:normal"
       id="circle15"
       cx="200"
       cy="200"
       r="68.642052" /><circle
       style="fill:none;fill-opacity:1;stroke-width:0.21142"
       id="path2"
       cx="-160.56291"
       cy="232.85092"
       transform="matrix(-0.98353457,0.18072009,0.18072009,0.98353457,0,0)"
       r="95.303947" /><circle
       style="fill:none;fill-opacity:1;stroke-width:0.161494"
       id="path1"
       cx="-255.23572"
       cy="-120.45236"
       transform="rotate(-160.38826)"
       r="76.280701" /><path
       d="m 113.36282,164.40003 1.58272,-3.26385 6.40085,3.10392 0.0224,-0.0461 -3.96245,-8.13233 1.93506,-3.99044 4.44049,9.26159 10.81985,-2.16063 -1.9015,3.92124 -9.67069,1.90591 -0.0224,0.0461 7.08129,3.43389 -1.58272,3.26385 z m 23.33402,-33.6528 2.50499,-2.51611 11.92652,11.87381 -2.47785,2.48885 -13.17399,-2.20947 7.7209,7.68677 -2.5502,2.56153 -11.92653,-11.87381 2.51403,-2.52519 13.12854,2.14613 z m 15.36582,-11.45793 3.13592,-1.79747 8.36909,14.60095 -3.13593,1.79747 z m 17.35236,-8.35076 3.50311,-0.94124 1.68292,6.26352 5.756,-1.54656 -1.68292,-6.26352 3.49074,-0.93791 4.36695,16.25296 -3.49074,0.93792 -1.73613,-6.46158 -5.756,1.54656 1.73613,6.46158 -3.50311,0.94124 z m 28.64035,3.1029 q 0.28175,-3.71925 2.91867,-5.94895 2.65067,-2.24151 6.02483,-1.9859 3.73203,0.28271 5.98826,2.90879 2.25719,2.6133 1.97545,6.33254 -0.27981,3.69369 -2.88033,5.95185 -2.60052,2.25817 -6.26864,1.98029 -3.66812,-0.27787 -5.86141,-2.88633 -2.18051,-2.60749 -1.89683,-6.35229 z m 8.85599,-4.57367 q -2.10595,-0.19809 -3.5101,1.19949 -1.40415,1.39757 -1.58327,3.76204 -0.16943,2.23666 1.03566,3.80619 1.20509,1.56953 3.21169,1.72154 2.10885,0.15975 3.50913,-1.18671 1.41403,-1.35826 1.59411,-3.73551 0.17718,-2.33891 -0.99344,-3.85441 -1.15784,-1.51453 -3.26378,-1.71263 z m 22.7782,1.03497 3.36032,1.46507 -0.57125,11.95791 8.37284,-8.55649 3.37207,1.47019 -12.55369,12.88611 -2.89034,-1.26016 z m 35.91639,22.45051 2.62131,2.39468 -11.35097,12.42517 -2.59291,-2.36874 1.64199,-13.25669 -7.3483,8.04372 -2.66862,-2.43791 11.35097,-12.42517 2.63076,2.40333 -1.58066,13.20855 z m 15.85799,21.06518 1.32038,2.47711 -11.61976,13.97892 -1.71227,-3.21233 2.27313,-2.76579 -3.03264,-5.68944 -3.53924,0.39048 -1.70623,-3.20102 z m -4.20053,3.83673 -5.29981,0.60267 1.87505,3.51773 z"
       id="text3"
       style="font-weight:bold;font-size:26.2503px;font-family:'Tw Cen MT';-inkscape-font-specification:'Tw Cen MT Bold';letter-spacing:7.9375px;fill:#10b981;stroke-width:2.18752"
       aria-label="KNIHOVNA" /><path
       d="m 133.64235,240.8841 -3.71414,-0.9858 q 0.12591,-2.37093 -0.28844,-3.16698 -0.31926,-0.61334 -1.02001,-0.8125 -0.68769,-0.20596 -1.32714,0.12688 -1.26584,0.65889 -0.99688,3.43796 0.15851,2.05703 0.0196,3.224 -0.12588,1.16017 -0.85794,2.27098 -0.72527,1.12387 -1.92587,1.74879 -2.20543,1.14797 -4.76726,0.20921 -2.55504,-0.9257 -3.81848,-3.35298 -1.3857,-2.66219 -0.23186,-6.56331 l 4.09526,0.95327 q -0.83435,2.5075 -0.0939,3.92994 0.34642,0.66554 1.25293,0.97322 0.91955,0.30088 1.57204,-0.0387 1.34414,-0.69965 0.88803,-4.06131 -0.25505,-1.92385 -0.0993,-2.86736 0.16878,-0.9503 0.90298,-1.92955 0.75405,-0.97299 1.785,-1.50961 2.28373,-1.18872 4.48053,-0.44143 2.19681,0.74729 3.44666,3.14847 1.4808,2.84488 0.69828,5.70686 z m 7.68298,7.99521 2.92825,2.87634 -8.27851,8.42788 q -1.15466,1.17549 -1.20498,2.52837 -0.0503,1.35288 1.00972,2.39414 1.21748,1.1959 2.59023,1.14201 1.38307,-0.0644 2.67175,-1.37632 l 8.13417,-8.28094 2.91775,2.86603 -8.76305,8.92117 q -1.15466,1.17549 -3.01084,1.8475 -1.84588,0.66151 -3.77564,0.0858 -1.91926,-0.56542 -3.48309,-2.10153 -2.83378,-2.78356 -2.5993,-5.64657 0.24479,-2.8735 1.95617,-4.61575 z m 20.0409,16.82379 5.93824,2.89342 q 2.39381,1.16639 3.17876,3.28359 0.7914,2.10398 -0.317,4.37876 -0.72818,1.49448 -2.11289,2.48905 -1.36503,0.98779 -3.14204,0.94021 -1.77701,-0.0476 -2.82149,-0.52377 l -2.19476,-1.00394 -3.27362,6.71854 -3.71636,-1.8108 z m 2.14264,4.90624 -2.16523,4.44376 1.4548,0.70886 q 0.93901,0.45753 1.92894,0.10524 1.00315,-0.34585 1.45424,-1.27163 0.51553,-1.05804 0.0452,-2.00728 -0.47031,-0.94924 -1.85899,-1.62587 z m 19.59582,3.66013 10.74183,1.67801 -0.59036,3.77926 -6.62825,-1.03541 -0.60172,3.85194 6.62824,1.03541 -0.58128,3.72112 -6.62825,-1.03541 -0.61761,3.95369 6.62825,1.03542 -0.59037,3.77926 -10.74183,-1.67801 z m 21.60417,1.88092 6.28252,-0.96067 q 2.86494,-0.43809 4.75411,0.82086 1.9037,1.25673 2.29731,3.83082 0.2246,1.46883 -0.30378,3.17186 -0.51384,1.70081 -2.42651,2.91602 l 6.55364,7.13883 -4.71189,0.7205 -6.07426,-6.6317 -0.46537,0.0712 1.12968,7.38778 -4.11564,0.62932 z m 4.66508,2.76926 0.76053,4.97366 0.88712,-0.13565 q 3.21397,-0.49146 2.81147,-3.12372 -0.16456,-1.07617 -1.10367,-1.57253 -0.92679,-0.51313 -2.41016,-0.28631 z m 19.15932,-8.08032 3.68708,-1.93388 3.45775,6.59246 6.05829,-3.17758 -3.45775,-6.59246 3.67406,-1.92704 8.97238,17.10652 -3.67406,1.92704 -3.56709,-6.80091 -6.05828,3.17757 3.56708,6.80092 -3.68709,1.93388 z m 22.21553,-14.04172 7.59077,-7.7835 2.73844,2.67064 -4.68388,4.80281 2.7911,2.72199 4.68389,-4.80281 2.69631,2.62955 -4.68388,4.80281 2.86483,2.7939 4.68389,-4.80281 2.73844,2.67063 -7.59077,7.7835 z m 14.04901,-16.51978 2.8566,-5.67739 q 1.30266,-2.589 3.42326,-3.3995 2.12722,-0.82365 4.45338,0.34676 1.32735,0.66787 2.40938,2.08516 1.08864,1.40415 0.97109,3.66717 l 9.61553,-1.20613 -2.14245,4.25805 -8.92445,1.10917 -0.2116,0.42055 6.6762,3.35915 -1.87134,3.71922 z m 4.95982,-2.19818 4.4946,2.26147 0.40336,-0.80166 q 1.46137,-2.90441 -0.91736,-4.10127 -0.97252,-0.48933 -1.92115,-0.0114 -0.95517,0.45815 -1.62964,1.79864 z"
       id="text4"
       style="font-weight:bold;font-size:30.13px;font-family:'Tw Cen MT';-inkscape-font-specification:'Tw Cen MT, Bold';letter-spacing:13.2292px;fill:#10b981;stroke-width:2.52999"
       aria-label=" SUPERHER" /><text
       xml:space="preserve"
       transform="scale(0.26458333)"
       id="text2"
       style="font-style:normal;font-variant:normal;font-weight:normal;font-stretch:normal;font-size:99.2137px;font-family:'Tw Cen MT';-inkscape-font-specification:'Tw Cen MT, Normal';font-variant-ligatures:normal;font-variant-caps:normal;font-variant-numeric:normal;font-variant-east-asian:normal;text-align:start;letter-spacing:15px;writing-mode:lr-tb;direction:ltr;white-space:pre;shape-inside:url(#rect2);display:inline;fill:#10b981;fill-opacity:1" /><circle
       style="fill:none;fill-opacity:1;stroke:#000000;stroke-width:5;stroke-dasharray:none"
       id="circle3"
       cx="200"
       cy="200"
       r="70.205666" /><path
       style="opacity:1;fill:#ffffff;fill-opacity:1;stroke:#00bb84;stroke-width:1;stroke-linecap:round;stroke-dasharray:none;stroke-opacity:1;paint-order:normal"
       d="m 130.7723,183.78602 -40.066737,-0.99592 6.052145,16.77746 -5.745707,17.39034 40.679609,-0.0766 z"
       id="path16" /><path
       style="opacity:1;fill:#ffffff;fill-opacity:1;stroke:#00bb84;stroke-width:1;stroke-linecap:round;stroke-dasharray:none;stroke-opacity:1;paint-order:normal"
       d="m 270.30354,183.55619 40.06674,-0.99592 -6.05215,16.77746 5.74571,17.39034 -40.67961,-0.0766 z"
       id="path17" /><path
       id="circle7"
       style="fill:none;stroke:#10b981;stroke-width:5;stroke-linecap:round;stroke-opacity:1"
       d="M 270.20567,200 A 70.205666,70.205666 0 0 1 200,270.20567 70.205666,70.205666 0 0 1 129.79433,200 70.205666,70.205666 0 0 1 200,129.79433 70.205666,70.205666 0 0 1 270.20567,200 Z m -2.02088,-16.72461 h 40.43789 L 303.33101,200 l 5.29167,16.72462 -40.43787,1e-5 m -136.36909,-1e-5 H 91.377315 L 96.668982,200 91.377315,183.27539 v 0 0 l 40.438405,1e-5 m -12.46636,43.37625 c -1.07498,-3.25301 -1.95217,-6.56807 -2.62675,-9.92703 m 0,-33.44922 c 0.55515,-2.76427 1.24758,-5.49919 2.07474,-8.19459 m 162.4053,0 a 84.940193,84.940193 0 0 1 2.07474,8.19458 m 0,33.44924 a 84.940193,84.940193 0 0 1 -2.62675,9.92702 M 100.85933,183.27539 A 100.54146,100.54146 0 0 1 200,99.458542 100.54146,100.54146 0 0 1 299.14067,183.27539 m 0,33.44923 A 100.54146,100.54146 0 0 1 200,300.54146 100.54146,100.54146 0 0 1 100.85933,216.72462" /><text
       xml:space="preserve"
       style="font-style:normal;font-variant:normal;font-weight:normal;font-stretch:normal;font-size:14.6029px;font-family:'Tw Cen MT';-inkscape-font-specification:'Tw Cen MT, Normal';font-variant-ligatures:normal;font-variant-caps:normal;font-variant-numeric:normal;font-variant-east-asian:normal;text-align:start;letter-spacing:0.128234px;writing-mode:lr-tb;direction:ltr;text-anchor:start;opacity:1;fill:#10b981;fill-opacity:1;stroke:#10b981;stroke-width:1;stroke-linecap:round;stroke-dasharray:none;paint-order:normal;stroke-opacity:1"
       x="95.718323"
       y="215.94101"
       id="text14"
       transform="scale(1.056995,0.94607827)"><tspan
         id="tspan14"
         style="font-style:normal;font-variant:normal;font-weight:normal;font-stretch:normal;font-size:14.6029px;font-family:'Tw Cen MT';-inkscape-font-specification:'Tw Cen MT, Normal';font-variant-ligatures:normal;font-variant-caps:normal;font-variant-numeric:normal;font-variant-east-asian:normal;letter-spacing:0.128234px;fill:#10b981;fill-opacity:1;stroke-width:1;stroke-dasharray:none;stroke:#10b981;stroke-opacity:1"
         x="95.718323"
         y="215.94101">DRP</tspan></text><text
       xml:space="preserve"
       style="font-style:normal;font-variant:normal;font-weight:normal;font-stretch:normal;font-size:21.1667px;font-family:'Tw Cen MT';-inkscape-font-specification:'Tw Cen MT, Normal';font-variant-ligatures:normal;font-variant-caps:normal;font-variant-numeric:normal;font-variant-east-asian:normal;text-align:start;letter-spacing:0.264583px;writing-mode:lr-tb;direction:ltr;text-anchor:start;opacity:1;fill:#10b981;fill-opacity:1;stroke:#10b981;stroke-width:1;stroke-linecap:round;stroke-dasharray:none;paint-order:normal;stroke-opacity:1"
       x="275.48752"
       y="206.71794"
       id="text15"><tspan
         id="tspan15"
         style="font-style:normal;font-variant:normal;font-weight:normal;font-stretch:normal;font-size:21.1667px;font-family:'Tw Cen MT';-inkscape-font-specification:'Tw Cen MT, Normal';font-variant-ligatures:normal;font-variant-caps:normal;font-variant-numeric:normal;font-variant-east-asian:normal;letter-spacing:0.264583px;fill:#10b981;fill-opacity:1;stroke-width:1;stroke-dasharray:none;stroke:#10b981;stroke-opacity:1"
         x="275.48752"
         y="206.71794">26</tspan></text><g
       id="g5"
       transform="matrix(0.0646307,0,0,0.0646307,144.73798,146.79815)"><path
         d="m 727.69,1537.8 c -5.382,-13.53 -1.7863,-20.476 15.156,-17.634 117.83,71.65 280.22,44.115 391.2,-23.865 -142.43,142.37 -279,176.93 -406.36,41.5 z"
         id="path1-7" /><path
         d="m 24.073,679.92 c 6.6487,-18.237 14.742,-23.242 25.652,-2.4465 90.284,452.72 396.8,704.39 781.39,727.53 425.55,25.604 673.02,-246.33 844.04,-687.39 2.7212,-15.705 14.66,-12.282 9.6447,3.6567 -169.21,507.59 -498.91,791.43 -812.6,782.84 -360.74,-9.8744 -759.03,-361.12 -848.13,-824.19 z"
         id="path2-1" /><path
         d="m 335.99,992.13 c 39.812,111.99 110.86,144.58 210.98,103.27 -91.099,7.8139 -159.94,-29.642 -210.98,-103.27 z"
         id="path3" /><path
         d="m 1256.4,1044.8 c 3.6193,-1.7731 7.5913,-3.0701 11.885,-3.9329 0.3628,-0.073 0.7383,-0.089 1.1067,-0.054 50.678,4.8718 106.52,-14.63 146.56,-38.664 -40.494,40.117 -92.426,61.924 -158.56,49.741 -3.5868,-0.6607 -4.2622,-5.4864 -0.9869,-7.0908 z"
         id="path4" /><path
         d="m 283.31,328.58 c -0.3296,-0.0379 -0.6554,-0.08 -0.9774,-0.1265 -9.2315,-1.332 -14.206,-11.658 -9.5233,-19.724 69.119,-119.07 214.08,-221.03 354.44,-272.61 0.8224,-0.3023 1.7228,-0.3072 2.5499,-0.0181 l 2.7739,0.9698 c 3.3331,1.1653 3.3659,5.8609 0.0464,7.0642 -114.35,41.449 -219.91,128.29 -291,247.12 -2.0442,3.4165 -4.8266,6.3335 -8.1741,8.4888 l -41.606,26.788 c -2.5261,1.6265 -5.5397,2.3935 -8.5246,2.0506 z"
         id="path5" /><path
         d="m 784.97,649.19 c -0.2338,-21.57 -11.516,-38.835 -31.522,-52.702 5.1319,-114.6 -16.257,-213.2 -66.854,-294.89 -35.782,-57.77 -82.317,-72.955 -138.92,-66.346 44.124,6.4283 80.259,22.235 105.73,50.812 63.734,71.511 83.224,176.53 72.247,304.83 -153.24,-29.844 -307.52,-5.0901 -462.83,73.724 18.407,-180.75 75.19,-320.3 188.61,-399.04 55.812,-36.709 114.91,-46.272 177.63,-25.922 -56.971,-37.5 -100.16,-32.952 -164.35,5.2263 33.391,-26.358 72.405,-49.67 105.23,-43.787 37.292,6.6833 95.675,50.144 132.6,90.518 1.1107,1.2144 2.6838,1.9285 4.3292,1.9108 12.698,-0.137 23.504,-2.0418 31.797,-6.2915 3.5397,-1.8135 4.158,-6.6206 1.3019,-9.3885 -44.857,-43.473 -105.49,-83.501 -160.43,-90.035 -50.592,-6.0178 -119.71,34.53 -171.16,87.258 l 9.9383,4.1864 c -100.38,94.984 -170.71,218.85 -183.43,398.08 l -101.03,51.674 c -6.8951,8.0933 -4.4855,13.56 10.486,15.482 l 90.904,-42.771 c 7.1172,74.403 23.821,143.47 60.344,201.32 57.312,90.773 131.08,131.89 238.47,92.885 103.14,-37.456 178.63,-148.02 218.01,-355.26 l 32.898,8.5422 z m -170.7,-27.264 4.1476,10.397 c -15.529,-0.2297 -24.987,5.8696 -29.549,17.072 l -8.8783,-26.011 c -0.3127,-0.9808 34.28,-1.4576 34.28,-1.4576 z m -146.18,11.548 c 28.984,-4.785 57.054,-8.2528 83.469,-9.3333 23.621,30.536 -2.4073,71.263 -36.184,65.071 -38.968,-7.1437 -63.779,-33.437 -47.286,-55.738 z m 18.234,333.15 c -135.88,-1.3519 -211.32,-123.86 -225.23,-275.77 l 79.566,-28.868 c -4.0796,139.01 55.999,209.8 184.78,194.67 103.08,-12.113 142.27,-93.155 121.23,-231.67 l 75.177,8.1902 c -35.614,208.11 -140.53,334.4 -235.52,333.46 z"
         id="path6" /><path
         d="m 968.56,33.804 c 1.3531,-0.0575 20.424,-10.629 20.424,-10.629 129.7,15.853 266.12,79.129 410.33,197.41 -23.902,19.127 -50.378,22.987 -76.718,3.3979 -126.78,-94.29 -241.51,-186.11 -354.03,-190.18 z"
         id="path7" /><path
         d="m 1627,795.26 c -27.389,-26.43 -64.312,-52.135 -106.49,-77.44 -8.0372,-214.37 -84.727,-361.02 -223.54,-446.38 -109.23,-104.51 -225.88,-97.017 -346.6,-28.098 15.185,10.33 32.054,17.807 51.456,20.992 20.005,-11.664 41.116,-20.013 63.325,-25.06 -79.818,65.413 -137.3,158.78 -125.63,338.68 l -61.125,0.2947 c -13.363,6.664 -21.886,18.417 -25.331,35.509 l 92.011,-0.7948 c 48.929,182.6 102.85,353.83 316.15,370.46 161.62,12.6 257.6,-64.043 257.96,-239.25 31.841,19.763 60.866,41.539 87.17,65.26 1.2947,1.1676 2.9479,1.8847 4.6888,1.9799 6.7008,0.3658 11.816,-1.3978 15.719,-4.7884 3.4059,-2.9585 3.4805,-8.2329 0.2342,-11.366 z M 1198.23,231.99 c -25.277,-4.9819 -48.265,-6.9882 -65.829,-1.9453 l 0.4797,-9.4418 c 28.078,-0.6486 51.069,2.2944 65.349,11.387 z m -73.135,10.069 c 149.68,5.7776 254.6,104.49 329.19,266.97 30.247,65.88 38.548,131.91 35.587,190.8 -154.33,-86.431 -353.88,-124.94 -519.67,-123.76 -12.807,-185.99 22.316,-339.12 154.88,-334.01 z m 191.1,434.7 -14.155,-3.4648 6.4454,-14.192 7.7098,17.656 z m -54.914,-35.35 -2.7141,8.4297 c -14.427,-2.8264 -23.546,3.0499 -27.745,16.995 l -8.5043,-6.5971 6.1041,-26.468 32.859,7.6401 z m -107.46,42.255 c -31.661,-4.162 -44.672,-28.649 -39.982,-64.634 l 84.783,10.945 c 6.3792,36.571 -8.4685,58.465 -44.801,53.689 z m 115.02,260.81 c -155.49,-13.993 -264.02,-157.36 -294.82,-329.89 l 51.143,-0.1866 c -10.434,127.32 70.553,209.74 164.72,209.71 74.942,-0.0222 173.03,-77.216 149.62,-162.35 57.664,17.273 108.28,38.678 150.35,65.092 -8.8111,109.45 -88.115,229.58 -221.02,217.62 z"
         id="path8" /></g></g></svg>
